<svg width="32" height="32" viewBox="0 0 32 32" fill="none" xmlns="http://www.w3.org/2000/svg">
<path d="M30.6312 19.1279H28.5796V2.72792C28.5734 1.66228 27.7093 0.801365 26.6437 0.799805H5.35608C4.28576 0.801367 3.42016 1.67012 3.42016 2.74044V19.1404H1.3686C0.926404 19.1404 0.568604 19.4983 0.568604 19.9404V29.2592C0.568604 30.3296 1.43424 31.1983 2.50452 31.1999H29.4953C30.5656 31.1983 31.4312 30.3296 31.4312 29.2592V19.928C31.4312 19.7155 31.3484 19.5124 31.1984 19.3624C31.0484 19.2124 30.8437 19.128 30.6312 19.128L30.6312 19.1279ZM5.03116 2.72792C5.03116 2.54199 5.18116 2.39042 5.36866 2.3873H26.6439C26.8298 2.39043 26.9798 2.54199 26.9798 2.72792V19.1279H24.5798C24.1845 19.1232 23.8439 19.4092 23.7798 19.7998L23.3439 22.492H8.66428L8.22836 19.7998C8.1643 19.4092 7.82524 19.1232 7.42836 19.1279H5.02836L5.03116 2.72792ZM29.8312 29.2483C29.8312 29.4343 29.6827 29.5858 29.4952 29.5874H2.50443C2.31693 29.5858 2.16849 29.4343 2.16849 29.2483V20.7279H6.75609L7.19985 23.4201C7.26392 23.8107 7.60297 24.0967 7.99985 24.092H24.0407C24.436 24.0967 24.7766 23.8108 24.8407 23.4201L25.2766 20.7279H29.8314L29.8312 29.2483Z" fill="#4F46BA"/>
<path d="M18.0564 25.8591H13.944C13.5018 25.8591 13.144 26.2185 13.144 26.6591C13.144 27.1013 13.5019 27.4591 13.944 27.4591H18.0564C18.4986 27.4591 18.8564 27.1013 18.8564 26.6591C18.8564 26.2185 18.4986 25.8591 18.0564 25.8591Z" fill="#4F46BA"/>
<path d="M13.1564 11.0919L15.2002 8.65912V18.4311C15.2002 18.8733 15.558 19.2311 16.0002 19.2311C16.4424 19.2311 16.8002 18.8733 16.8002 18.4311V8.65912L18.8439 11.0904V11.0919C18.9971 11.2716 19.2205 11.3763 19.4564 11.3763C19.6424 11.3779 19.8236 11.3154 19.9689 11.1997C20.3048 10.9169 20.3501 10.4138 20.0689 10.0763L16.6127 5.94829C16.4548 5.77642 16.233 5.67798 16.0002 5.67798C15.7674 5.67798 15.5455 5.77642 15.3877 5.94829L11.9315 10.0639C11.6721 10.403 11.7252 10.8873 12.0518 11.1639C12.3799 11.4389 12.8674 11.4076 13.1564 11.092L13.1564 11.0919Z" fill="#4F46BA"/>
</svg>
