<svg width="38" height="40" viewBox="0 0 38 40" fill="none" xmlns="http://www.w3.org/2000/svg">
<path d="M28.5335 18.9071C28.5335 13.6571 24.2499 9.37354 18.9999 9.37354C13.7499 9.37354 9.46631 13.6571 9.46631 18.9071C9.46631 19.6635 9.54998 20.4198 9.75998 21.1744C10.0126 22.3918 10.4736 23.1481 11.1036 24.1981C11.23 24.4508 11.3973 24.7018 11.5663 24.9954C11.7763 25.3318 11.9437 25.6681 12.1536 25.9618C12.9936 27.3481 13.4973 28.1454 13.4973 29.7844V33.7318C13.4973 34.7391 14.211 35.5381 15.1773 35.7054C15.5973 37.8481 16.8573 39.1918 19 39.1918C21.1427 39.1918 22.4436 37.8481 22.8227 35.7054C23.789 35.5381 24.5027 34.6981 24.5027 33.7318V29.7844C24.5027 28.1471 25.0063 27.3071 25.8463 25.9618C26.0137 25.6681 26.2237 25.3318 26.4336 24.9954C26.601 24.7018 26.77 24.4491 26.8963 24.1981C27.5263 23.1481 27.989 22.3918 28.24 21.1744C28.45 20.4197 28.5337 19.6634 28.5337 18.9071H28.5335ZM22.8635 30.7935H15.2199V29.8272C15.2199 29.6172 15.2199 29.4499 15.1772 29.2809H22.8637C22.8637 29.4482 22.821 29.6172 22.821 29.8272L22.8226 30.7935H22.8635ZM22.4861 34.1125H15.5133C15.3033 34.1125 15.177 33.9452 15.177 33.7762V32.4735H22.8205V33.7762C22.8632 33.9435 22.6958 34.1125 22.4858 34.1125H22.4861ZM18.9998 37.5562C18.5371 37.5562 17.3625 37.5562 16.8998 35.7925H21.1426C20.68 37.5562 19.4626 37.5562 19 37.5562H18.9998ZM26.6026 20.8397C26.3926 21.7634 26.0563 22.3934 25.469 23.3597C25.3016 23.6124 25.1753 23.8634 25.0063 24.1571C24.7963 24.4934 24.6289 24.8297 24.46 25.0807C23.9563 25.9207 23.4936 26.6771 23.2 27.5581H14.8835C14.5899 26.6754 14.1699 25.9207 13.6235 25.0807C13.4562 24.7871 13.2462 24.4934 13.0772 24.1571C12.9099 23.8634 12.7409 23.5697 12.6145 23.3597C12.0272 22.3524 11.6909 21.7634 11.4809 20.7971C11.3135 20.1671 11.2282 19.5371 11.2282 18.9071C11.2282 14.5807 14.7555 11.0535 19.0818 11.0535C23.4082 11.0535 26.9354 14.5808 26.9354 18.9071C26.8533 19.5371 26.7697 20.1671 26.6023 20.8397H26.6026Z" fill="#4F46BA"/>
<path d="M36.3036 18.0671H32.8173C32.3546 18.0671 31.9773 18.4445 31.9773 18.9071C31.9773 19.3698 32.3546 19.7471 32.8173 19.7471H36.3036C36.7663 19.7471 37.1436 19.3698 37.1436 18.9071C37.1436 18.4461 36.7663 18.0671 36.3036 18.0671Z" fill="#4F46BA"/>
<path d="M28.7436 10.0035C28.9536 10.0035 29.1636 9.91986 29.3309 9.75088L31.8082 7.27355C32.1446 6.93722 32.1446 6.43355 31.8082 6.09722C31.4719 5.76089 30.9683 5.76089 30.6319 6.09722L28.1546 8.57455C27.8183 8.91087 27.8183 9.41455 28.1546 9.75088C28.3236 9.91986 28.5336 10.0035 28.7436 10.0035H28.7436Z" fill="#4F46BA"/>
<path d="M18.9999 5.93001C19.4626 5.93001 19.8399 5.55266 19.8399 5.09001V1.60367C19.8399 1.141 19.4626 0.763672 18.9999 0.763672C18.5373 0.763672 18.1599 1.14102 18.1599 1.60367V5.09001C18.1599 5.55268 18.5373 5.93001 18.9999 5.93001Z" fill="#4F46BA"/>
<path d="M8.66705 9.75283C8.83439 9.92018 9.04439 10.0055 9.25437 10.0055C9.46436 10.0055 9.67437 9.92182 9.8417 9.75283C10.178 9.41651 10.178 8.91283 9.8417 8.5765L7.36437 6.09917C7.02805 5.76284 6.52437 5.76284 6.18804 6.09917C5.85171 6.4355 5.85171 6.93917 6.18804 7.27551L8.66705 9.75283Z" fill="#4F46BA"/>
<path d="M5.22355 18.0671H1.73722C1.27454 18.0671 0.897217 18.4445 0.897217 18.9071C0.897217 19.3698 1.27456 19.7471 1.73722 19.7471H5.22355C5.68622 19.7471 6.06355 19.3698 6.06355 18.9071C6.06355 18.4461 5.68621 18.0671 5.22355 18.0671Z" fill="#4F46BA"/>
<path d="M8.66708 28.0635L6.18975 30.5409C5.85342 30.8772 5.85342 31.3809 6.18975 31.7172C6.35709 31.8845 6.56709 31.9698 6.77707 31.9698C6.98706 31.9698 7.19707 31.8862 7.3644 31.7172L9.84173 29.2399C10.1781 28.9035 10.1781 28.3999 9.84173 28.0635C9.50705 27.7272 8.96234 27.7272 8.66703 28.0635H8.66708Z" fill="#4F46BA"/>
<path d="M29.3329 28.0635C28.9966 27.7272 28.4929 27.7272 28.1565 28.0635C27.8202 28.3999 27.8202 28.9035 28.1565 29.2399L30.6339 31.7172C30.8012 31.8845 31.0112 31.9698 31.2212 31.9698C31.4312 31.9698 31.6412 31.8862 31.8085 31.7172C32.1449 31.3809 32.1449 30.8772 31.8085 30.5409L29.3329 28.0635Z" fill="#4F46BA"/>
</svg>
