<svg width="146" height="27" viewBox="0 0 146 27" fill="none" xmlns="http://www.w3.org/2000/svg">
<g filter="url(#filter0_d_35_370)">
<path d="M63.2079 11.8482H72.2703L67.4784 4.13874L58.6836 18.0778H54.6809L65.3784 1.33402C65.8435 0.657499 66.6186 0.248779 67.4784 0.248779C68.3099 0.248779 69.0851 0.643412 69.5361 1.30583L80.2758 18.0778H76.2731L74.3845 14.963H65.2092L63.2079 11.8482ZM104.785 14.963V0.417908H101.389V16.3865C101.389 16.8234 101.558 17.2462 101.882 17.5704C102.206 17.8946 102.643 18.0778 103.122 18.0778H118.612L120.613 14.963H104.785ZM48.5923 12.3556C51.8904 12.3556 54.5682 9.69182 54.5682 6.3938C54.5682 3.09579 51.8904 0.417908 48.5923 0.417908H33.7329V18.0778H37.1282V3.5327H48.3668C49.9454 3.5327 51.2138 4.81525 51.2138 6.3938C51.2138 7.97233 49.9454 9.2549 48.3668 9.2549L38.7913 9.2408L48.9305 18.0778H53.8635L47.042 12.3556H48.5923ZM12.8314 18.0778C7.95624 18.0778 4 14.1314 4 9.2549C4 4.37834 7.95624 0.417908 12.8314 0.417908H23.0961C27.9726 0.417908 31.926 4.37834 31.926 9.2549C31.926 14.1314 27.9726 18.0778 23.0961 18.0778H12.8314ZM22.8678 14.963C26.0263 14.963 28.5844 12.412 28.5844 9.2549C28.5844 6.09782 26.0263 3.5327 22.8678 3.5327H13.0583C9.90122 3.5327 7.34168 6.09782 7.34168 9.2549C7.34168 12.412 9.90122 14.963 13.0583 14.963H22.8678ZM87.3651 18.0778C82.4885 18.0778 78.5282 14.1314 78.5282 9.2549C78.5282 4.37834 82.4885 0.417908 87.3651 0.417908H99.5565L97.5692 3.5327H87.5906C84.4335 3.5327 81.8685 6.09782 81.8685 9.2549C81.8685 12.412 84.4335 14.963 87.5906 14.963H99.8383L97.837 18.0778H87.3651ZM128.9 14.963C126.293 14.963 124.08 13.2153 123.404 10.8052H137.921L139.922 7.69045H123.404C124.08 5.29446 126.293 3.5327 128.9 3.5327H138.865L140.88 0.417908H128.675C123.798 0.417908 119.838 4.37834 119.838 9.2549C119.838 14.1314 123.798 18.0778 128.675 18.0778H139.147L141.148 14.963H128.9Z" fill="#EA1B22"/>
</g>
<defs>
<filter id="filter0_d_35_370" x="0" y="0.248779" width="145.148" height="25.8291" filterUnits="userSpaceOnUse" color-interpolation-filters="sRGB">
<feFlood flood-opacity="0" result="BackgroundImageFix"/>
<feColorMatrix in="SourceAlpha" type="matrix" values="0 0 0 0 0 0 0 0 0 0 0 0 0 0 0 0 0 0 127 0" result="hardAlpha"/>
<feOffset dy="4"/>
<feGaussianBlur stdDeviation="2"/>
<feComposite in2="hardAlpha" operator="out"/>
<feColorMatrix type="matrix" values="0 0 0 0 0 0 0 0 0 0 0 0 0 0 0 0 0 0 0.25 0"/>
<feBlend mode="normal" in2="BackgroundImageFix" result="effect1_dropShadow_35_370"/>
<feBlend mode="normal" in="SourceGraphic" in2="effect1_dropShadow_35_370" result="shape"/>
</filter>
</defs>
</svg>
