<svg width="91" height="18" viewBox="0 0 91 18" fill="none" xmlns="http://www.w3.org/2000/svg">
<path d="M9.08676 2.93822C9.41642 2.08585 10.6224 2.08585 10.9521 2.93822L12.0217 5.7037C12.1707 6.08897 12.5413 6.34297 12.9544 6.34297H15.9907C17.0009 6.34297 17.374 7.67022 16.5117 8.19654L14.3722 9.50241C13.9594 9.75437 13.7861 10.2656 13.9605 10.7167L14.8447 13.0029C15.1895 13.8944 14.2069 14.7151 13.3911 14.2172L10.5404 12.4772C10.2205 12.282 9.81833 12.282 9.49844 12.4772L6.64779 14.2172C5.83193 14.7151 4.84934 13.8944 5.19413 13.0029L6.07834 10.7167C6.25279 10.2656 6.07945 9.75437 5.66665 9.50241L3.52718 8.19654C2.66488 7.67022 3.03793 6.34297 4.04816 6.34297H7.0845C7.49759 6.34297 7.86817 6.08897 8.01718 5.7037L9.08676 2.93822Z" fill="#F9896B"/>
<path d="M26.7682 2.93822C27.0978 2.08585 28.3038 2.08585 28.6335 2.93822L29.7031 5.7037C29.8521 6.08897 30.2227 6.34297 30.6358 6.34297H33.6721C34.6823 6.34297 35.0554 7.67022 34.1931 8.19654L32.0536 9.50241C31.6408 9.75437 31.4675 10.2656 31.6419 10.7167L32.5261 13.0029C32.8709 13.8944 31.8883 14.7151 31.0725 14.2172L28.2218 12.4772C27.9019 12.282 27.4997 12.282 27.1798 12.4772L24.3292 14.2172C23.5133 14.7151 22.5307 13.8944 22.8755 13.0029L23.7597 10.7167C23.9342 10.2656 23.7608 9.75437 23.348 9.50241L21.2086 8.19654C20.3463 7.67022 20.7193 6.34297 21.7296 6.34297H24.7659C25.179 6.34297 25.5496 6.08897 25.6986 5.7037L26.7682 2.93822Z" fill="#F9896B"/>
<path d="M44.4496 2.93822C44.7792 2.08585 45.9852 2.08585 46.3149 2.93822L47.3845 5.7037C47.5335 6.08897 47.9041 6.34297 48.3172 6.34297H51.3535C52.3637 6.34297 52.7368 7.67022 51.8745 8.19654L49.735 9.50241C49.3222 9.75437 49.1489 10.2656 49.3233 10.7167L50.2075 13.0029C50.5523 13.8944 49.5697 14.7151 48.7539 14.2172L45.9032 12.4772C45.5833 12.282 45.1811 12.282 44.8612 12.4772L42.0106 14.2172C41.1947 14.7151 40.2121 13.8944 40.5569 13.0029L41.4411 10.7167C41.6156 10.2656 41.4422 9.75437 41.0294 9.50241L38.89 8.19654C38.0277 7.67022 38.4007 6.34297 39.411 6.34297H42.4473C42.8604 6.34297 43.231 6.08897 43.38 5.7037L44.4496 2.93822Z" fill="#F9896B"/>
<path d="M62.1307 2.93822C62.4604 2.08585 63.6664 2.08585 63.996 2.93822L65.0656 5.7037C65.2146 6.08897 65.5852 6.34297 65.9983 6.34297H69.0346C70.0449 6.34297 70.4179 7.67022 69.5556 8.19654L67.4162 9.50241C67.0034 9.75437 66.83 10.2656 67.0045 10.7167L67.8887 13.0029C68.2335 13.8944 67.2509 14.7151 66.435 14.2172L63.5844 12.4772C63.2645 12.282 62.8623 12.282 62.5424 12.4772L59.6917 14.2172C58.8759 14.7151 57.8933 13.8944 58.2381 13.0029L59.1223 10.7167C59.2967 10.2656 59.1234 9.75437 58.7106 9.50241L56.5711 8.19654C55.7088 7.67022 56.0819 6.34297 57.0921 6.34297H60.1284C60.5415 6.34297 60.9121 6.08897 61.0611 5.7037L62.1307 2.93822Z" fill="#F9896B"/>
<path d="M79.8121 2.93822C80.1418 2.08585 81.3478 2.08585 81.6774 2.93822L82.747 5.7037C82.896 6.08897 83.2666 6.34297 83.6797 6.34297H86.716C87.7263 6.34297 88.0993 7.67022 87.237 8.19654L85.0975 9.50241C84.6847 9.75437 84.5114 10.2656 84.6859 10.7167L85.5701 13.0029C85.9149 13.8944 84.9323 14.7151 84.1164 14.2172L81.2658 12.4772C80.9459 12.282 80.5437 12.282 80.2238 12.4772L77.3731 14.2172C76.5573 14.7151 75.5747 13.8944 75.9195 13.0029L76.8037 10.7167C76.9781 10.2656 76.8048 9.75437 76.392 9.50241L74.2525 8.19654C73.3902 7.67022 73.7633 6.34297 74.7735 6.34297H77.8098C78.2229 6.34297 78.5935 6.08897 78.7425 5.7037L79.8121 2.93822Z" fill="#F9896B"/>
</svg>
