<svg width="138" height="26" viewBox="0 0 138 26" fill="none" xmlns="http://www.w3.org/2000/svg">
<path d="M2.95521 20.4119C1.92651 20.4141 0.976171 19.8627 0.467689 18.9684C-0.0334646 18.0797 -0.00341249 16.987 0.545831 16.1271L5.66847 8.08282C6.20225 7.20265 7.16832 6.67774 8.19724 6.70883C9.2254 6.73347 10.1606 7.30994 10.6446 8.2174C11.1221 9.12038 11.0624 10.2068 10.4905 11.0544L5.3711 19.0987C4.84347 19.9209 3.93213 20.4163 2.95521 20.4119Z" fill="#F62B54"/>
<path d="M11.742 20.4116C10.7088 20.4116 9.75809 19.8591 9.25885 18.9713C8.75881 18.085 8.78886 16.995 9.33699 16.1376L14.4499 8.11177C14.9759 7.21896 15.9449 6.68173 16.9808 6.70847C18.0227 6.73126 18.9669 7.31407 19.4444 8.22573C19.9187 9.13739 19.8493 10.2303 19.2599 11.0757L14.1481 19.1016C13.6222 19.9202 12.7151 20.4141 11.742 20.4116Z" fill="#FFCC00"/>
<path d="M20.3321 20.4798C21.7887 20.4798 22.9694 19.3238 22.9694 17.8979C22.9694 16.4719 21.7887 15.3159 20.3321 15.3159C18.8756 15.3159 17.6948 16.4719 17.6948 17.8979C17.6948 19.3238 18.8756 20.4798 20.3321 20.4798Z" fill="#00CA72"/>
<path d="M134.903 15.4645C135.7 15.4645 136.176 16.031 136.176 16.9589V20.1389H137.258V16.8862C137.258 15.3082 136.515 14.3933 135.117 14.3933C134.57 14.3933 133.702 14.543 133.184 15.5491C132.939 14.9445 132.381 14.5234 131.733 14.453C131.533 14.4163 131.328 14.4042 131.125 14.4172C130.68 14.453 129.888 14.7297 129.592 15.357V14.5137H128.508V20.1389H129.592V17.1033C129.592 15.9225 130.364 15.4645 131.138 15.4645C131.863 15.4645 132.34 16.0191 132.34 16.947V20.1389H133.416V17.1033C133.416 16.1634 133.981 15.4536 134.903 15.4645ZM124.533 19.199C125.028 19.2099 125.505 19.0123 125.852 18.6542C126.199 18.296 126.383 17.8087 126.365 17.3084C126.365 16.1753 125.531 15.4645 124.533 15.4645C123.533 15.4645 122.701 16.1753 122.701 17.3084C122.681 17.8076 122.866 18.2939 123.211 18.6509C123.556 19.0091 124.032 19.2077 124.524 19.199H124.533ZM124.533 20.2539C122.951 20.2539 121.63 19.0851 121.63 17.3019C121.63 15.5187 122.951 14.3868 124.533 14.3868C126.115 14.3868 127.447 15.5187 127.447 17.3019C127.447 19.0851 126.108 20.2594 124.525 20.2594L124.533 20.2539ZM116.057 17.3019L116.046 17.3084C116.046 15.5253 117.401 14.3933 118.995 14.3868C119.804 14.3711 120.582 14.6992 121.136 15.2897L120.315 15.9887C119.963 15.643 119.488 15.4524 118.995 15.459C117.996 15.459 117.128 16.1699 117.128 17.3019C117.128 18.067 117.583 18.7562 118.281 19.0492C118.978 19.3423 119.782 19.1795 120.315 18.639L121.148 19.3379C120.592 19.9345 119.81 20.2674 118.995 20.2539C117.413 20.2539 116.057 19.0851 116.057 17.3019ZM112.591 19.059C112.589 18.8604 112.666 18.669 112.805 18.5269C112.943 18.3849 113.133 18.3038 113.332 18.3015C113.53 18.3038 113.72 18.3849 113.859 18.5269C113.997 18.669 114.074 18.8604 114.072 19.059C114.052 19.4544 113.727 19.7658 113.332 19.7699C112.936 19.7658 112.611 19.4544 112.591 19.059Z" fill="#333333"/>
<path d="M115.552 7.36327H111.698L108.997 14.3277L106.31 7.36327H102.456L107.141 18.3683L104.227 25.6442H108.053L115.552 7.36327ZM92.1141 13.4844C92.1141 15.2426 93.6509 16.3995 95.1606 16.3995C96.6442 16.3995 98.1017 15.3229 98.1017 13.4833C98.1017 11.6437 96.6442 10.566 95.1606 10.566C93.6509 10.566 92.1141 11.724 92.1141 13.4833V13.4844ZM98.1017 19.6294V18.2369C97.3203 19.4199 95.497 19.8671 94.5615 19.8671C91.464 19.8671 88.3655 17.4251 88.3655 13.4833C88.3655 9.54256 91.4629 7.10063 94.5615 7.10063C95.3418 7.10063 97.1651 7.3611 98.1017 8.72858V7.36761H101.694V19.6316L98.1017 19.6305V19.6294ZM87.3431 19.6294H83.7507V18.1056C83.1506 19.2343 81.6952 19.892 80.1844 19.892C77.0598 19.892 74.2999 17.3969 74.2999 13.5332C74.2999 9.59683 77.0598 7.09845 80.1844 7.09845C81.693 7.09845 83.1527 7.72793 83.7507 8.85774V0.682129H87.3431V19.6294ZM83.6726 13.4562C83.6726 11.6177 82.3453 10.54 80.8617 10.54C79.3249 10.54 78.0485 11.6958 78.0485 13.4562C78.0485 15.273 79.3249 16.4234 80.8606 16.4234C82.3724 16.4256 83.6726 15.2165 83.6726 13.4562ZM65.4178 13.1393C65.4178 11.2747 66.3815 10.6441 67.6567 10.6441C68.8799 10.6441 69.7655 11.4581 69.7655 13.0861V19.6272H73.3839V12.2992C73.3839 8.80673 71.6648 7.09845 68.9309 7.09845C67.4994 7.09845 66.0679 7.91243 65.4167 9.14751V7.36327H61.8004V19.6272H65.4178V13.1393ZM54.4529 19.8378C51.0168 19.8378 48.1505 17.3166 48.1505 13.4551C48.1505 9.5914 51.0136 7.0952 54.4529 7.0952C57.8923 7.0952 60.7802 9.5914 60.7802 13.4551C60.7802 17.3188 57.889 19.8389 54.4529 19.8389V19.8378ZM54.4529 16.2671C55.9615 16.2671 57.2128 15.1623 57.2128 13.4562C57.2128 11.8011 55.9626 10.6713 54.4529 10.6713C53.7183 10.6598 53.0112 10.9505 52.4972 11.4755C51.9803 12.0031 51.6995 12.7178 51.719 13.4562C51.7201 15.1644 52.9693 16.2671 54.4529 16.2671ZM41.6637 10.6452C42.7305 10.6452 43.6682 11.4863 43.6682 13.0872V19.6294H47.2606V12.6639C47.2606 8.96084 45.4601 7.09628 42.5742 7.09628C41.7169 7.09628 40.1019 7.35676 38.9298 9.27558C38.2526 7.85708 36.9513 7.12125 35.0281 7.12125C33.6644 7.11431 32.4226 7.9054 31.8525 9.14426V7.36436H28.2319V19.6283H31.8493V13.1393C31.8493 11.2747 32.8651 10.6441 33.958 10.6441C34.9999 10.6441 35.9354 11.4581 35.9626 13.0079V19.6283H39.581V13.1393C39.581 11.3561 40.5187 10.6463 41.6637 10.6463V10.6452Z" fill="#333333"/>
</svg>
