<svg width="60" height="60" viewBox="0 0 60 60" fill="none" xmlns="http://www.w3.org/2000/svg">
<rect width="60" height="60" rx="5" fill="#E9ECF2"/>
<path d="M29.7999 13.2C23.2951 13.2 17.3935 16.9516 14.6187 22.8H12.1999C11.9234 22.8 11.6656 22.9438 11.5203 23.1797C11.3749 23.4156 11.3609 23.7094 11.4843 23.9578L14.6843 30.3578C14.8203 30.6281 15.0968 30.8 15.4 30.8C15.7031 30.8 15.9796 30.6281 16.1156 30.3578L19.3156 23.9578C19.439 23.7094 19.4265 23.4156 19.2797 23.1797C19.1344 22.9438 18.8765 22.8 18.6 22.8H16.4141C19.0484 17.9032 24.1733 14.8 29.8001 14.8C38.1813 14.8 45.0001 21.6188 45.0001 30C45.0001 38.3812 38.1813 45.2 29.8001 45.2C23.5753 45.2 18.0421 41.4688 15.7065 35.6936C15.5408 35.2843 15.0768 35.0874 14.6643 35.2514C14.2549 35.417 14.0565 35.8827 14.2221 36.2936C16.8049 42.6764 22.9189 46.8 29.8001 46.8C39.0641 46.8 46.6001 39.264 46.6001 30C46.6001 20.736 39.0641 13.2 29.8001 13.2H29.7999ZM15.3999 28.2108L13.4937 24.3999H17.3046L15.3999 28.2108ZM32.9999 31.5999C32.9999 32.9233 31.9233 33.9999 30.5999 33.9999V35.1999C30.5999 35.6421 30.2421 35.9999 29.7999 35.9999C29.3577 35.9999 28.9999 35.6421 28.9999 35.1999V33.9999H27.7999C27.3577 33.9999 26.9999 33.6421 26.9999 33.1999C26.9999 32.7577 27.3577 32.3999 27.7999 32.3999H30.5999C31.0405 32.3999 31.3999 32.0405 31.3999 31.5999C31.3999 31.1593 31.0405 30.7999 30.5999 30.7999H28.9999C27.6765 30.7999 26.5999 29.7233 26.5999 28.3999C26.5999 27.0764 27.6765 25.9999 28.9999 25.9999V24.7999C28.9999 24.3577 29.3577 23.9999 29.7999 23.9999C30.2421 23.9999 30.5999 24.3577 30.5999 24.7999V25.9999H31.7999C32.2421 25.9999 32.5999 26.3577 32.5999 26.7999C32.5999 27.2421 32.2421 27.5999 31.7999 27.5999H28.9999C28.5593 27.5999 28.1999 27.9593 28.1999 28.3999C28.1999 28.8405 28.5593 29.1999 28.9999 29.1999H30.5999C31.9233 29.1999 32.9999 30.2764 32.9999 31.5999ZM29.7999 39.1999C24.7263 39.1999 20.5999 35.0735 20.5999 29.9999C20.5999 24.9263 24.7263 20.7999 29.7999 20.7999C34.8735 20.7999 38.9999 24.9263 38.9999 29.9999C38.9999 35.0735 34.8735 39.1999 29.7999 39.1999ZM29.7999 22.3999C25.6091 22.3999 22.1999 25.8092 22.1999 29.9999C22.1999 34.1905 25.6093 37.5999 29.7999 37.5999C33.9905 37.5999 37.3999 34.1905 37.3999 29.9999C37.3999 25.8092 33.9905 22.3999 29.7999 22.3999Z" fill="black"/>
</svg>
