<svg width="60" height="60" viewBox="0 0 60 60" fill="none" xmlns="http://www.w3.org/2000/svg">
<rect width="60" height="60" rx="5" fill="#E9ECF2"/>
<path d="M29.9968 20.0828L23.428 22.1797C23.3983 23.914 23.3233 25.6125 23.253 27.3189C23.2186 28.1032 23.1889 28.8954 23.1593 29.6626L23.153 29.7501C23.1061 30.9564 23.0483 32.5501 23.4639 33.6048C23.6389 34.0564 23.9327 34.4783 24.2671 34.8642C24.6249 35.2735 25.0343 35.6485 25.4327 35.9954C26.8327 37.2079 28.4327 38.3626 29.9907 39.4704C31.5548 38.3626 33.1548 37.2142 34.5487 35.9954C34.9471 35.6501 35.3565 35.2751 35.7143 34.8642C36.0534 34.4782 36.3409 34.0564 36.5175 33.6048C36.9331 32.5439 36.8753 30.9501 36.8284 29.7501L36.8221 29.6626C36.7925 28.9017 36.7581 28.1095 36.7284 27.3189C36.6581 25.6142 36.5815 23.9142 36.5534 22.1797L29.9846 20.0828H29.9968ZM22.6264 21.125L29.8044 18.8344C29.9216 18.7937 30.056 18.7937 30.1857 18.8344L37.3513 21.1187C37.6091 21.189 37.8028 21.4297 37.8075 21.7109C37.8309 23.55 37.9122 25.4016 37.9887 27.2657C38.0231 28.0329 38.0528 28.8064 38.0825 29.6157L38.0887 29.7032C38.1419 31.022 38.2059 32.7673 37.6903 34.0624C37.4559 34.6546 37.0872 35.1937 36.6653 35.6796C36.2606 36.1484 35.8044 36.564 35.37 36.939C33.8231 38.2812 32.0715 39.5281 30.378 40.7233L30.367 40.7343C30.1561 40.8921 29.8639 40.9046 29.6343 40.7405L29.6108 40.7233C27.9171 39.5218 26.1655 38.2796 24.6188 36.939C24.186 36.564 23.7345 36.1483 23.3235 35.6796C22.9016 35.1937 22.5329 34.6546 22.2985 34.0624C21.7891 32.7671 21.8532 31.0218 21.9063 29.7032L21.9126 29.6157C21.9422 28.8126 21.9766 28.0392 22.0063 27.2657C22.0876 25.4032 22.1641 23.5564 22.1876 21.7109C22.1938 21.4469 22.3579 21.2078 22.6204 21.125H22.6264Z" fill="black"/>
<path d="M30.1909 15.6656L40.0629 18.8172C40.3269 18.8984 40.4957 19.1453 40.4957 19.4094C40.4957 22.814 40.6238 25.4158 40.7238 27.5002C41.1566 36.3938 41.1629 36.5238 30.3534 44.2518C30.1253 44.4096 29.8315 44.3986 29.6206 44.2455C18.8286 36.5235 18.8346 36.4003 19.2614 27.5063C19.3614 25.4141 19.4895 22.8127 19.4895 19.4155C19.4895 19.1171 19.7005 18.8655 19.9817 18.8061L29.8065 15.6718C29.9346 15.6312 30.0706 15.6374 30.1878 15.6718L30.1909 15.6656ZM39.2549 19.8608L30.0033 16.9077L20.7517 19.8608C20.7407 23.0077 20.6173 25.52 20.5173 27.5592C20.1251 35.692 20.1126 35.9028 30.0033 42.9748C39.8941 35.8968 39.8813 35.6856 39.4893 27.5592C39.3893 25.5201 39.2674 23.006 39.2549 19.8608H39.2549Z" fill="black"/>
<path d="M34.5608 26.6624C34.8061 26.4171 35.1998 26.4171 35.4451 26.6624C35.6904 26.9077 35.6904 27.3015 35.4451 27.5467L28.9359 34.0559C28.6906 34.3012 28.2968 34.3012 28.0516 34.0559L24.5531 30.5575C24.3078 30.3122 24.3078 29.9184 24.5531 29.6731C24.7984 29.4278 25.1922 29.4278 25.4375 29.6731L28.4953 32.7309L34.5657 26.6605L34.5608 26.6624Z" fill="black"/>
<path d="M19.808 31.9248C20.1533 31.9248 20.4345 32.2061 20.4345 32.5514C20.4345 32.8967 20.1533 33.1779 19.808 33.1779H14.9972C14.6519 33.1779 14.3706 32.8967 14.3706 32.5514V23.125C14.3706 22.7797 14.6519 22.4984 14.9972 22.4984H19.9536C20.2989 22.4984 20.5801 22.7797 20.5801 23.125C20.5801 23.4703 20.2989 23.7515 19.9536 23.7515H15.624V31.9251L19.808 31.9248ZM40.0392 23.7512C39.6939 23.7512 39.4126 23.47 39.4126 23.1247C39.4126 22.7794 39.6939 22.4981 40.0392 22.4981H44.9956C45.3409 22.4981 45.6221 22.7794 45.6221 23.1247V32.5511C45.6221 32.8964 45.3409 33.1776 44.9956 33.1776H40.1848C39.8395 33.1776 39.5582 32.8964 39.5582 32.5511C39.5582 32.2058 39.8395 31.9245 40.1848 31.9245H44.3676V23.7509H40.038L40.0392 23.7512Z" fill="black"/>
</svg>
