<svg width="60" height="60" viewBox="0 0 60 60" fill="none" xmlns="http://www.w3.org/2000/svg">
<rect width="60" height="60" rx="5" fill="#E9ECF2"/>
<path d="M11.3877 31.9351H19.0877L20.2324 41.3075C20.2771 41.7475 20.6277 42.0552 21.0677 42.0999H21.1124C21.5077 42.0999 21.86 41.8352 21.9477 41.4399L26.3477 24.4123L31.0126 39.8572C31.1449 40.2525 31.4973 40.5172 31.9373 40.4725C32.3326 40.4278 32.6849 40.1202 32.7296 39.6802L33.6543 31.4953H41.5743C42.059 31.4953 42.4543 31.1 42.4543 30.6153V30.5706C42.4543 30.5259 42.4543 30.4383 42.4096 30.3953C42.4096 30.3506 42.4096 30.3506 42.365 30.3076C42.365 30.2629 42.3203 30.22 42.3203 30.1753C42.3203 30.1753 42.3203 30.1306 42.2756 30.1306C42.2309 30.0859 42.1879 30.0429 42.1432 29.9553L42.0986 29.9106C42.0539 29.8659 42.0109 29.8659 41.9662 29.8229H41.9215C39.5015 28.5476 35.9366 25.4229 35.4966 22.8278C35.3643 21.9478 35.5843 21.1555 36.2443 20.4955C37.6519 19.0002 39.6319 19.9678 41.0394 21.0231C41.3471 21.2431 41.7871 21.2431 42.0947 21.0231C43.5024 19.9678 45.4394 19.0431 46.8471 20.5384C47.3748 21.1108 47.6395 21.7261 47.6395 22.4737C47.5948 23.8814 46.5395 25.5984 44.6471 27.3586C44.2948 27.7109 44.2518 28.2386 44.6025 28.5909C44.9548 28.9433 45.4825 28.9863 45.8348 28.6356C47.4195 27.1833 49.3101 24.8956 49.3995 22.5205C49.4442 21.3329 49.0042 20.2329 48.1242 19.3529C46.4519 17.5929 44.0766 17.5929 41.5691 19.3082C39.0167 17.5929 36.6415 17.6358 34.9691 19.3529C33.9568 20.4082 33.5168 21.7729 33.7815 23.1805C34.1768 25.5558 36.3767 28.0654 38.6215 29.7805H32.9477C32.5077 29.7805 32.1124 30.1329 32.0677 30.5729L31.54 35.3253L27.1847 20.9377C27.0524 20.5424 26.7447 20.3224 26.3047 20.3224C25.9094 20.3224 25.5571 20.5871 25.4694 20.9824L21.4647 36.5576L20.76 30.9682C20.7153 30.5282 20.32 30.1759 19.88 30.1759H11.3876C10.9029 30.1759 10.5076 30.5712 10.5076 31.0559C10.5076 31.5406 10.9046 31.9359 11.3876 31.9359L11.3877 31.9351Z" fill="black"/>
</svg>
