<svg width="32" height="32" viewBox="0 0 32 32" fill="none" xmlns="http://www.w3.org/2000/svg">
<path d="M31.3189 6.10325L25.8969 0.681248C25.786 0.568748 25.6375 0.507812 25.4797 0.507812C25.3234 0.507812 25.1734 0.568748 25.0625 0.681248L16.4109 9.33125L17.2468 10.1656L25.4796 1.93281L30.0656 6.52041L28.6313 7.95477L26.0328 5.35477C25.8016 5.12508 25.4297 5.12508 25.1985 5.35477C24.9672 5.58758 24.9672 5.95945 25.1985 6.18913L27.7969 8.78913L26.1531 10.4329L24.5125 8.79225C24.2812 8.55944 23.9094 8.55944 23.6781 8.79225C23.4469 9.02194 23.4469 9.39537 23.6781 9.62661L25.3188 11.2672L23.675 12.911L21.075 10.311C20.8438 10.0798 20.4719 10.0798 20.2406 10.311C20.0094 10.5423 20.0094 10.9141 20.2406 11.1454L22.8407 13.7454L21.8375 14.7485L22.6719 15.5829L31.3235 6.93285C31.5485 6.70785 31.5485 6.33441 31.3188 6.10317L31.3189 6.10325Z" fill="#4F46BA"/>
<path d="M13.7517 22.8344L11.1532 20.236C10.922 20.0047 10.5501 20.0047 10.3189 20.236C10.0876 20.4672 10.0876 20.8391 10.3189 21.0703L12.9173 23.6688L11.2735 25.3141L9.6329 23.6734C9.40166 23.4422 9.02822 23.4422 8.79698 23.6734C8.56573 23.9047 8.56573 24.2766 8.79698 24.5078L10.4376 26.1484L8.79386 27.7906L6.19542 25.1938C5.96418 24.9609 5.59074 24.9609 5.3595 25.1938C5.12825 25.4234 5.12825 25.7969 5.3595 26.0281L7.95794 28.6266L6.52358 30.0625L1.93758 25.4733L10.1688 17.2421L9.33442 16.4077L0.684425 25.0561C0.453173 25.2874 0.453173 25.6592 0.684425 25.8905L6.10642 31.3141C6.21736 31.4235 6.3658 31.4875 6.52363 31.4875C6.67987 31.4875 6.82987 31.4234 6.94082 31.3141L15.5908 22.6641L14.7549 21.8297L13.7517 22.8344Z" fill="#4F46BA"/>
<path d="M28.6753 23.2657L9.11609 3.70649L7.80985 2.39712C6.88485 1.469 5.30205 1.41276 4.44577 2.27212L2.27233 4.44712C1.38169 5.33776 1.43953 6.84713 2.39889 7.80805L23.2661 28.6769C23.538 28.9456 23.9911 29.3925 28.9709 30.5206C29.074 30.5425 29.1771 30.555 29.2803 30.555C29.6271 30.555 29.9506 30.4237 30.1896 30.1831C30.4959 29.8737 30.6193 29.4222 30.5209 28.9738C29.3928 23.9846 28.9428 23.5345 28.6756 23.2657L28.6753 23.2657ZM3.23449 6.97209C2.73293 6.47209 2.67513 5.71273 3.10636 5.27988L5.27824 3.108C5.46418 2.9205 5.72512 2.81738 6.00948 2.81738C6.35636 2.81738 6.70792 2.96894 6.97196 3.23302L7.8626 4.12366L4.12352 7.86274L3.23449 6.97209ZM23.1157 25.3253C22.9094 25.2612 22.6844 25.3159 22.5313 25.4659C22.3782 25.6175 22.3173 25.8393 22.3751 26.0472L22.4016 26.1425L4.95964 8.69726L8.70028 4.95818L26.0299 22.291C25.8268 22.2379 25.6127 22.291 25.4642 22.4363C25.3111 22.5879 25.2517 22.8097 25.3096 23.0144L25.6174 24.1238L24.583 23.8082C24.3768 23.7441 24.1518 23.8003 23.9986 23.9519C23.844 24.1003 23.7846 24.3253 23.8424 24.5331L24.1502 25.6394L23.1157 25.3253ZM24.1 27.8409L23.8032 26.769L24.8313 27.0847C25.0407 27.1456 25.2719 27.0878 25.4251 26.9331C25.5751 26.7815 25.6344 26.5612 25.5751 26.3565L25.2688 25.2534L26.3 25.5675C26.5047 25.6316 26.7297 25.5753 26.8844 25.4237C27.0375 25.2753 27.0985 25.0519 27.0407 24.8456L26.7297 23.7253L27.7641 24.0284L27.8422 24.105C27.9266 24.1894 28.0766 24.4519 28.3078 25.1519L25.1547 28.3081C24.4485 28.0722 24.1875 27.9253 24.1 27.8409L24.1 27.8409ZM29.3516 29.3534C29.3376 29.3659 29.3126 29.3753 29.2829 29.3753L29.236 29.3675C28.0548 29.1018 27.1485 28.8753 26.4407 28.6847L28.6876 26.4378C28.8782 27.144 29.1032 28.0503 29.3719 29.23C29.3797 29.2831 29.3719 29.3316 29.3516 29.3534L29.3516 29.3534Z" fill="#4F46BA"/>
</svg>
