<svg width="138" height="22" viewBox="0 0 138 22" fill="none" xmlns="http://www.w3.org/2000/svg">
<path d="M130.621 9.88635V12.7458H132.63V15.5829C132.636 15.8002 132.626 16.0321 132.596 16.2317L132.579 16.3286C132.576 16.3502 132.572 16.3724 132.567 16.3952L132.551 16.4649C132.548 16.4768 132.545 16.4888 132.541 16.5009L132.518 16.5745C132.337 17.0969 131.793 17.7589 130.57 17.7589C129.268 17.7589 128.745 16.9989 128.602 16.4649L128.586 16.3952L128.573 16.3286C128.537 16.1098 128.522 15.8364 128.522 15.5829V6.62205C128.522 6.3403 128.539 6.03488 128.59 5.78607L128.624 5.63487C128.626 5.6244 128.629 5.61376 128.632 5.60296L128.651 5.53637C128.655 5.52499 128.658 5.51347 128.662 5.50184L128.687 5.43065C128.873 4.93556 129.364 4.27616 130.56 4.27616C131.483 4.27616 131.979 4.65218 132.245 5.04082L132.292 5.11375C132.307 5.13805 132.321 5.16231 132.334 5.18644L132.371 5.25836L132.404 5.32899L132.432 5.39777L132.456 5.4642L132.477 5.52772L132.494 5.58781L132.508 5.64394L132.52 5.69558C132.525 5.72126 132.529 5.74852 132.534 5.77686L132.545 5.86463C132.547 5.87963 132.549 5.89478 132.55 5.91001L132.562 6.04765L132.571 6.17965L132.578 6.35963L132.579 6.45186V7.53996H137.517L137.518 6.86262L137.521 6.62037L137.52 6.43259L137.516 6.21395L137.512 6.09624L137.503 5.91276L137.49 5.72481L137.48 5.59915C137.146 2.289 134.658 1.01545 131.63 0.793839L131.428 0.780613L131.223 0.770438C131.121 0.766103 131.018 0.762889 130.915 0.760758L130.707 0.75793C130.673 0.757579 130.638 0.757579 130.603 0.757579L130.395 0.758999C130.36 0.759474 130.326 0.760069 130.291 0.760786L130.085 0.766552L129.88 0.775296L129.677 0.78708L129.476 0.801967C129.409 0.807453 129.342 0.813468 129.276 0.82002L129.078 0.841304C129.045 0.845124 129.013 0.849081 128.98 0.853177L128.785 0.879424C128.333 0.944596 127.898 1.03744 127.485 1.16157L127.31 1.21669C125.396 1.84436 124.006 3.17885 123.721 5.59915L123.691 5.86782L123.671 6.07583L123.652 6.29391L123.637 6.51088C123.628 6.65267 123.622 6.78625 123.622 6.89672L123.622 15.2455L123.624 15.3492L123.628 15.5067L123.633 15.6171L123.64 15.735L123.649 15.8632L123.66 16.0045L123.682 16.2469L123.7 16.4328C123.977 19.5088 126.309 20.8772 129.161 21.2L129.361 21.2209C129.696 21.2528 130.037 21.2708 130.382 21.2759L130.589 21.2774L130.798 21.2759C131.145 21.2708 131.488 21.2528 131.824 21.2209L132.024 21.2C134.886 20.8772 137.202 19.5088 137.484 16.4328L137.507 16.1616L137.524 15.9321L137.539 15.6749L137.548 15.4534L137.556 15.1398V9.88635H130.621ZM96.5743 1.28501H91.6156V15.7896C91.6234 16.0424 91.6156 16.3263 91.5721 16.5345L91.5575 16.5977L91.5394 16.6648C91.5327 16.6879 91.5255 16.7115 91.5175 16.7355L91.4916 16.8091C91.3045 17.3078 90.828 17.9585 89.6879 17.9585C88.6188 17.9585 88.1307 17.3712 87.9262 16.8849L87.8963 16.8091C87.8917 16.7966 87.8872 16.7842 87.883 16.772L87.8596 16.6998L87.8403 16.6308C87.8374 16.6196 87.8346 16.6085 87.8321 16.5977L87.8184 16.5345C87.7688 16.3263 87.7625 16.0424 87.7688 15.7896V1.28501H82.8116V15.3394L82.8107 15.4524L82.8125 15.65L82.8194 15.9407L82.833 16.294L82.8425 16.4719L82.8489 16.5663L82.8552 16.6358C83.0981 19.236 84.6236 20.5895 86.7779 21.1558L86.9615 21.2018C87.3623 21.2975 87.7836 21.3672 88.2214 21.4137L88.4246 21.4336L88.63 21.4502L88.8376 21.4637C88.942 21.4696 89.0471 21.4744 89.1529 21.4781L89.3655 21.4839L89.58 21.4868C89.6159 21.4871 89.6519 21.4871 89.6879 21.4871L89.9037 21.4857C89.9395 21.4852 89.9753 21.4846 90.0109 21.4839L90.2239 21.4781C90.3299 21.4744 90.4352 21.4696 90.5397 21.4637L90.7477 21.4502L90.9534 21.4336L91.1569 21.4137C94.0571 21.1057 96.2326 19.7854 96.5322 16.6358L96.5362 16.6044L96.5443 16.5219L96.5563 16.3574L96.567 16.1582L96.5729 16.0143L96.579 15.7935L96.5807 15.65L96.5801 15.5152L96.577 15.3937C96.5762 15.3748 96.5753 15.3567 96.5743 15.3394V1.28501ZM51.0135 1.28501L48.54 16.6111L46.0679 1.28501H38.0693L37.6451 20.8915H42.5453L42.678 2.74119L46.0496 20.8915H51.0213L54.3959 2.74119L54.529 20.8915H59.4416L59.003 1.28501H51.0135ZM21.3988 1.28501L17.767 20.8915H23.0632L25.8001 2.74119L28.4713 20.8915H33.7307L30.114 1.28501H21.3988ZM113.904 17.0705L109.287 1.28501H102.011V20.6871H106.824L106.544 4.3965L111.503 20.6871H118.481V1.28501H113.636L113.904 17.0705ZM69.3833 6.38766C69.2962 6.00046 69.3214 5.58908 69.3664 5.37408C69.3792 5.31702 69.3943 5.25949 69.4121 5.20205L69.4408 5.11603C69.6364 4.57248 70.094 4.06191 71.1434 4.06191C72.2758 4.06191 72.9397 4.76784 72.9397 5.82725V7.02612H77.7734V5.65957C77.7734 2.57568 75.7551 1.38938 73.5984 0.97359L73.4209 0.941127L73.243 0.911996L73.0649 0.886056L72.8869 0.86317L72.7092 0.843197L72.532 0.826C72.4731 0.820714 72.4143 0.815868 72.3556 0.811438L72.1802 0.799372L72.0061 0.789664L71.8334 0.782175L71.6624 0.776765L71.4933 0.773296L71.2438 0.771426L71.1338 0.771814L70.9151 0.774934C70.8788 0.775717 70.8426 0.776632 70.8065 0.77768L70.5907 0.785576C70.519 0.788746 70.4477 0.792458 70.3768 0.79672L70.1651 0.811165C67.2162 1.03674 64.9149 2.24804 64.4546 5.08859C64.3184 5.95363 64.2847 6.72149 64.5015 7.70134C64.8427 9.31149 66.184 10.4573 67.7237 11.4183L67.962 11.5647C68.002 11.5889 68.042 11.613 68.0822 11.6369L68.324 11.7794L68.5673 11.9195L68.8115 12.0576L69.178 12.2611L70.1409 12.7888L70.3748 12.9185L70.6048 13.0478L70.8301 13.1769L71.05 13.306C72.0994 13.9305 72.9402 14.5639 73.2428 15.3211C73.4102 15.7709 73.3736 16.338 73.2926 16.6998L73.2788 16.7581C73.2588 16.8451 73.2336 16.9321 73.202 17.0177L73.1681 17.1027C72.9455 17.623 72.4586 18.0665 71.3891 18.0665C70.169 18.0665 69.4347 17.3651 69.4347 16.308L69.4332 14.4263H64.2303V15.922C64.2303 19.4326 66.4576 20.9575 69.2471 21.4103L69.4547 21.4419C69.5938 21.4616 69.7341 21.4788 69.8755 21.4936L70.0884 21.5139C70.3377 21.5355 70.5899 21.5498 70.844 21.5573L71.0623 21.5621C71.0987 21.5626 71.1352 21.563 71.1717 21.5633L71.2813 21.5637C71.3543 21.5637 71.427 21.5632 71.4994 21.5621L71.7157 21.5574C71.7516 21.5563 71.7875 21.5551 71.8232 21.5538L72.0369 21.5443C72.1078 21.5405 72.1784 21.5363 72.2486 21.5314L72.4583 21.5153C72.5974 21.5034 72.7351 21.4892 72.8712 21.4728L73.0742 21.4464L73.2747 21.4165C73.3412 21.4059 73.4072 21.3948 73.4728 21.383L73.6682 21.3459C76.0295 20.8728 77.7864 19.5899 78.1392 17.1234C78.1878 16.7555 78.2177 16.4158 78.2338 16.1052L78.2425 15.9025C78.2437 15.8694 78.2446 15.8368 78.2455 15.8044L78.2487 15.6148V15.434L78.2457 15.2621L78.2401 15.0991L78.2322 14.9451C78.2307 14.9202 78.2291 14.8957 78.2275 14.8715L78.2167 14.7312L78.2045 14.6001L78.1911 14.4782L78.1696 14.3128L78.1473 14.1686L78.1182 14.0097L78.1047 13.9447C77.7643 12.2373 76.2695 11.0314 74.6089 10.0387L74.3707 9.8983L74.1308 9.76062L73.8899 9.62547L73.5283 9.42708L73.0486 9.16967L72.2305 8.73455L71.8939 8.55243C71.8571 8.5323 71.8205 8.5122 71.7841 8.49212L71.5687 8.372L71.3594 8.25234C70.3291 7.65495 69.5503 7.06839 69.3833 6.38766ZM5.61961 6.33957C5.53063 5.96902 5.54454 5.57921 5.59019 5.3527L5.60909 5.26789L5.63053 5.18397C5.79383 4.59523 6.2403 3.9884 7.39426 3.9884C8.54102 3.9884 9.21624 4.70113 9.21624 5.76909V6.98257H14.1067V5.60519C14.1067 2.66231 12.2759 1.42639 10.2301 0.942931L10.0517 0.902764C9.90269 0.870834 9.75275 0.842709 9.60256 0.818027L9.42223 0.790038L9.24188 0.765215L9.06175 0.743417L8.88206 0.724506C8.82227 0.718668 8.76259 0.713288 8.70307 0.708342L8.525 0.694786L8.34808 0.683698L8.17257 0.674939L7.99868 0.668369L7.82666 0.663849L7.57265 0.6604H7.48917C7.41585 0.6604 7.34282 0.660913 7.27008 0.661946L7.05278 0.666615C6.90853 0.670781 6.76553 0.677062 6.62392 0.685526L6.41255 0.699867C6.3775 0.702533 6.34254 0.705337 6.30767 0.70828L6.09959 0.727625C6.03061 0.734637 5.96201 0.742215 5.89381 0.750367L5.69044 0.776557C5.52199 0.799833 5.35614 0.826752 5.19314 0.857444L4.99892 0.896094L4.80752 0.938415L4.61905 0.984458C4.55673 1.00043 4.4949 1.01703 4.4336 1.03427L4.25126 1.08791C2.35334 1.67132 0.985589 2.89492 0.640325 5.01809C0.497829 5.89698 0.473409 6.67013 0.679347 7.66081C1.04191 9.37277 2.52063 10.565 4.17496 11.5668L4.4182 11.712C4.45892 11.736 4.49971 11.7599 4.54056 11.7837L4.78634 11.9254L5.15642 12.1339L5.6491 12.4057L6.3758 12.8039L6.72882 13.0004L7.07201 13.1962L7.29425 13.3268C7.33081 13.3485 7.36711 13.3703 7.40316 13.3921L7.61614 13.5231C8.52438 14.092 9.23571 14.6779 9.51029 15.3649C9.69013 15.8116 9.64807 16.3785 9.56309 16.7521L9.54856 16.8125C9.52757 16.8985 9.5018 16.9845 9.46994 17.0692L9.43599 17.1534C9.20753 17.6829 8.71723 18.137 7.63368 18.137C6.40887 18.137 5.67626 17.4235 5.67626 16.3518L5.66946 14.4651H0.408203V15.9643C0.408203 20.1726 3.58109 21.5558 7.09494 21.6597L7.31498 21.6645L7.53575 21.6661L7.75405 21.6646C7.86278 21.663 7.97087 21.6603 8.07826 21.6564L8.29211 21.647C8.39855 21.6414 8.50426 21.6347 8.60919 21.6267L8.818 21.6091L9.02461 21.5881C9.09311 21.5805 9.16123 21.5724 9.22895 21.5637L9.43091 21.5359C9.49783 21.526 9.56433 21.5156 9.63041 21.5046L9.82734 21.4697C12.2726 21.0119 14.095 19.7148 14.4619 17.1778C14.5124 16.8154 14.544 16.4801 14.5617 16.1728L14.5714 15.9721L14.5774 15.7798C14.5788 15.7171 14.5796 15.6558 14.5799 15.5959L14.5792 15.4205L14.5758 15.2536L14.5699 15.0954L14.5618 14.9458L14.5519 14.8049L14.5405 14.6728L14.5214 14.4913L14.5008 14.3299L14.4729 14.1463L14.4412 13.9684C14.102 12.2812 12.6518 11.0809 11.0202 10.0937L10.7803 9.95072C10.7401 9.92713 10.6999 9.90367 10.6595 9.88031L10.4169 9.74153L10.1733 9.60532L9.92941 9.47149L9.68581 9.33983L8.611 8.76931L8.26729 8.5851L8.04408 8.46339L7.82638 8.34235L7.61482 8.22177C7.58011 8.2017 7.54568 8.18165 7.51155 8.1616L7.31044 8.04136C6.4224 7.50043 5.77031 6.95923 5.61961 6.33957Z" fill="#1428A0"/>
</svg>
